<svg width="14" height="19" viewBox="0 0 14 19" fill="none" xmlns="http://www.w3.org/2000/svg">
<path d="M12.0625 2.88995C12.5312 2.88995 12.9297 3.05402 13.2578 3.38214C13.5859 3.71027 13.75 4.1087 13.75 4.57745V16.9525C13.75 17.4212 13.5859 17.8196 13.2578 18.1478C12.9297 18.4759 12.5312 18.64 12.0625 18.64H1.9375C1.46875 18.64 1.07031 18.4759 0.742188 18.1478C0.414063 17.8196 0.25 17.4212 0.25 16.9525V4.57745C0.25 4.1087 0.414063 3.71027 0.742188 3.38214C1.07031 3.05402 1.46875 2.88995 1.9375 2.88995H4.75C4.75 2.28058 4.97266 1.75323 5.41797 1.30792C5.86328 0.86261 6.39062 0.639954 7 0.639954C7.60938 0.639954 8.13672 0.86261 8.58203 1.30792C9.02734 1.75323 9.25 2.28058 9.25 2.88995H12.0625ZM3.02734 15.3001C3.02734 15.3001 3.06836 15.3411 3.15039 15.4232C3.23242 15.5052 3.39063 15.5462 3.625 15.5462C3.85937 15.5462 4.05859 15.4642 4.22266 15.3001C4.38672 15.136 4.46875 14.9368 4.46875 14.7025C4.46875 14.4681 4.38672 14.2689 4.22266 14.1048C4.05859 13.9407 3.85937 13.8587 3.625 13.8587C3.39063 13.8587 3.19141 13.9407 3.02734 14.1048C2.86328 14.2689 2.78125 14.4681 2.78125 14.7025C2.78125 14.9368 2.86328 15.136 3.02734 15.3001ZM3.02734 11.9251C3.02734 11.9251 3.06836 11.9661 3.15039 12.0482C3.23242 12.1302 3.39063 12.1712 3.625 12.1712C3.85937 12.1712 4.05859 12.0892 4.22266 11.9251C4.38672 11.761 4.46875 11.5618 4.46875 11.3275C4.46875 11.0931 4.38672 10.8939 4.22266 10.7298C4.05859 10.5657 3.85937 10.4837 3.625 10.4837C3.39063 10.4837 3.19141 10.5657 3.02734 10.7298C2.86328 10.8939 2.78125 11.0931 2.78125 11.3275C2.78125 11.5618 2.86328 11.761 3.02734 11.9251ZM3.02734 8.55011C3.02734 8.55011 3.06836 8.59113 3.15039 8.67316C3.23242 8.75519 3.39063 8.7962 3.625 8.7962C3.85937 8.7962 4.05859 8.71417 4.22266 8.55011C4.38672 8.38605 4.46875 8.18683 4.46875 7.95245C4.46875 7.71808 4.38672 7.51886 4.22266 7.3548C4.05859 7.19073 3.85937 7.1087 3.625 7.1087C3.39063 7.1087 3.19141 7.19073 3.02734 7.3548C2.86328 7.51886 2.78125 7.71808 2.78125 7.95245C2.78125 8.18683 2.86328 8.38605 3.02734 8.55011ZM7.59766 2.2923C7.59766 2.2923 7.55664 2.25128 7.47461 2.16925C7.39258 2.08722 7.23437 2.0462 7 2.0462C6.76563 2.0462 6.56641 2.12823 6.40234 2.2923C6.23828 2.45636 6.15625 2.65558 6.15625 2.88995C6.15625 3.12433 6.23828 3.32355 6.40234 3.48761C6.56641 3.65167 6.76563 3.7337 7 3.7337C7.23437 3.7337 7.43359 3.65167 7.59766 3.48761C7.76172 3.32355 7.84375 3.12433 7.84375 2.88995C7.84375 2.65558 7.76172 2.45636 7.59766 2.2923ZM11.5 14.9837V14.4212C11.5 14.2337 11.4063 14.14 11.2188 14.14H6.15625C5.96875 14.14 5.875 14.2337 5.875 14.4212V14.9837C5.875 15.1712 5.96875 15.265 6.15625 15.265H11.2188C11.4063 15.265 11.5 15.1712 11.5 14.9837ZM11.5 11.6087V11.0462C11.5 10.8587 11.4063 10.765 11.2188 10.765H6.15625C5.96875 10.765 5.875 10.8587 5.875 11.0462V11.6087C5.875 11.7962 5.96875 11.89 6.15625 11.89H11.2188C11.4063 11.89 11.5 11.7962 11.5 11.6087ZM11.5 8.2337V7.6712C11.5 7.4837 11.4063 7.38995 11.2188 7.38995H6.15625C5.96875 7.38995 5.875 7.4837 5.875 7.6712V8.2337C5.875 8.4212 5.96875 8.51495 6.15625 8.51495H11.2188C11.4063 8.51495 11.5 8.4212 11.5 8.2337Z" fill="#737373"/>
</svg>
