<svg width="15" height="15" viewBox="0 0 15 15" fill="none" xmlns="http://www.w3.org/2000/svg">
<path d="M13.5175 13.3599H2.14249C1.7779 13.3599 1.46801 13.2323 1.2128 12.9771C0.957591 12.7219 0.829987 12.412 0.829987 12.0474V2.42242C0.829987 2.05784 0.957591 1.74795 1.2128 1.49274C1.46801 1.23753 1.7779 1.10992 2.14249 1.10992H13.5175C13.8821 1.10992 14.192 1.23753 14.4472 1.49274C14.7024 1.74795 14.83 2.05784 14.83 2.42242V12.0474C14.83 12.412 14.7024 12.7219 14.4472 12.9771C14.192 13.2323 13.8821 13.3599 13.5175 13.3599ZM5.10928 3.83063C5.10928 3.83063 5.05687 3.77822 4.95206 3.6734C4.84724 3.56858 4.63988 3.51617 4.32999 3.51617C4.02009 3.51617 3.76033 3.62099 3.55069 3.83063C3.34105 4.04026 3.23624 4.30003 3.23624 4.60992C3.23624 4.91982 3.34105 5.17959 3.55069 5.38922C3.76033 5.59886 4.02009 5.70367 4.32999 5.70367C4.63988 5.70367 4.89965 5.59886 5.10928 5.38922C5.31892 5.17959 5.42374 4.91982 5.42374 4.60992C5.42374 4.30003 5.31892 4.04026 5.10928 3.83063ZM5.10928 6.45563C5.10928 6.45563 5.05687 6.40322 4.95206 6.2984C4.84724 6.19358 4.63988 6.14117 4.32999 6.14117C4.02009 6.14117 3.76033 6.24599 3.55069 6.45563C3.34105 6.66526 3.23624 6.92503 3.23624 7.23492C3.23624 7.54482 3.34105 7.80459 3.55069 8.01422C3.76033 8.22386 4.02009 8.32867 4.32999 8.32867C4.63988 8.32867 4.89965 8.22386 5.10928 8.01422C5.31892 7.80459 5.42374 7.54482 5.42374 7.23492C5.42374 6.92503 5.31892 6.66526 5.10928 6.45563ZM5.10928 9.08063C5.10928 9.08063 5.05687 9.02822 4.95206 8.9234C4.84724 8.81858 4.63988 8.76617 4.32999 8.76617C4.02009 8.76617 3.76033 8.87099 3.55069 9.08063C3.34105 9.29026 3.23624 9.55003 3.23624 9.85992C3.23624 10.1698 3.34105 10.4296 3.55069 10.6392C3.76033 10.8489 4.02009 10.9537 4.32999 10.9537C4.63988 10.9537 4.89965 10.8489 5.10928 10.6392C5.31892 10.4296 5.42374 10.1698 5.42374 9.85992C5.42374 9.55003 5.31892 9.29026 5.10928 9.08063ZM12.205 5.04742V4.17242C12.205 3.95367 12.0956 3.8443 11.8769 3.8443H6.40811C6.18936 3.8443 6.07999 3.95367 6.07999 4.17242V5.04742C6.07999 5.26617 6.18936 5.37555 6.40811 5.37555H11.8769C12.0956 5.37555 12.205 5.26617 12.205 5.04742ZM12.205 7.67242V6.79742C12.205 6.57867 12.0956 6.4693 11.8769 6.4693H6.40811C6.18936 6.4693 6.07999 6.57867 6.07999 6.79742V7.67242C6.07999 7.89117 6.18936 8.00055 6.40811 8.00055H11.8769C12.0956 8.00055 12.205 7.89117 12.205 7.67242ZM12.205 10.2974V9.42242C12.205 9.20367 12.0956 9.0943 11.8769 9.0943H6.40811C6.18936 9.0943 6.07999 9.20367 6.07999 9.42242V10.2974C6.07999 10.5162 6.18936 10.6255 6.40811 10.6255H11.8769C12.0956 10.6255 12.205 10.5162 12.205 10.2974Z" fill="#737373"/>
</svg>
