<svg width="28" height="27" viewBox="0 0 28 27" fill="none" xmlns="http://www.w3.org/2000/svg">
<path d="M13.9514 26.554C21.2605 26.554 27.1857 20.6288 27.1857 13.3197C27.1857 6.01064 21.2605 0.0854492 13.9514 0.0854492C6.64231 0.0854492 0.717117 6.01064 0.717117 13.3197C0.717117 20.6288 6.64231 26.554 13.9514 26.554Z" fill="#F3741F"/>
<path d="M4.09267 9.22803H5.55394V18.6971H4.09267V9.22803ZM21.5549 9.22803V10.587H19.1195V18.6971H17.6582V10.587H15.2568V9.22803H21.5549ZM22.3489 9.22803H23.8102V18.6971H22.3489V9.22803ZM6.7327 9.24264V18.6971H8.20372V12.0239L13.7955 18.6971H15.2422L15.2568 9.22803H13.7955V16.1399L8.20372 9.24264H6.7327Z" fill="white"/>
</svg>
