<svg width="33" height="24" viewBox="0 0 33 24" fill="none" xmlns="http://www.w3.org/2000/svg">
<g clip-path="url(#clip0_103_333)">
<rect width="32" height="24" transform="translate(0.779358)" fill="#E1E1E1"/>
<path fill-rule="evenodd" clip-rule="evenodd" d="M0.779358 0H32.7794V24H0.779358V0Z" fill="#229E45"/>
<path fill-rule="evenodd" clip-rule="evenodd" d="M16.8497 21.7966L31.9238 12.0131L16.7584 2.20312L1.63486 12.0366L16.8497 21.7966V21.7966Z" fill="#F8E509"/>
<path fill-rule="evenodd" clip-rule="evenodd" d="M23.4179 12.0003C23.4179 15.5167 20.5627 18.3673 17.0407 18.3673C13.5186 18.3673 10.6635 15.5167 10.6635 12.0003C10.6635 8.4839 13.5187 5.6333 17.0407 5.6333C20.5628 5.6333 23.4179 8.4839 23.4179 12.0003H23.4179Z" fill="#2B49A3"/>
<path fill-rule="evenodd" clip-rule="evenodd" d="M14.9444 15.8139L14.7472 15.7002L14.5426 15.8015L14.5884 15.574L14.4303 15.4074L14.6563 15.3809L14.7625 15.1769L14.8572 15.3879L15.0802 15.4284L14.913 15.5849M19.2179 16.8961L19.0209 16.7824L18.8163 16.8836L18.8621 16.6561L18.7041 16.4895L18.9301 16.463L19.0362 16.259L19.1309 16.47L19.3539 16.5105L19.1866 16.667M17.3759 15.1674L17.2057 15.0692L17.0289 15.1566L17.0685 14.9601L16.932 14.8161L17.1272 14.7932L17.2189 14.6171L17.3007 14.7993L17.4933 14.8343L17.3488 14.9696M21.6921 14.5457L21.525 14.4493L21.3514 14.5352L21.3902 14.3423L21.2562 14.201L21.4479 14.1785L21.5379 14.0055L21.6182 14.1845L21.8074 14.2188L21.6655 14.3516M17.2979 13.2517L17.1009 13.1381L16.8962 13.2393L16.942 13.0118L16.7839 12.8452L17.01 12.8187L17.1162 12.6147L17.2109 12.8257L17.4339 12.8662L17.2666 13.0227M12.0359 11.2762L11.8389 11.1625L11.6342 11.2638L11.68 11.0364L11.522 10.8697L11.748 10.8432L11.8541 10.6392L11.9488 10.8502L12.1718 10.8907L12.0045 11.0472M12.6687 13.9042L12.4717 13.7905L12.267 13.8917L12.3128 13.6643L12.1548 13.4976L12.3808 13.4711L12.4869 13.2671L12.5816 13.4781L12.8046 13.5186L12.6374 13.6752M19.2351 10.3087L19.0611 10.2084L18.8803 10.2978L18.9208 10.0969L18.7811 9.94974L18.9808 9.92624L19.0745 9.74609L19.1582 9.93249L19.3552 9.96824L19.2074 10.1065M18.8742 12.0185L18.7372 11.9394L18.5947 12.0098L18.6267 11.8516L18.5167 11.7356L18.6739 11.7172L18.7478 11.5753L18.8137 11.7221L18.9688 11.7503L18.8525 11.8593M11.7425 14.3804L11.611 14.3045L11.4743 14.3721L11.5048 14.2202L11.3993 14.109L11.5503 14.0913L11.6211 13.9551L11.6843 14.096L11.8332 14.123L11.7216 14.2275M21.7286 14.9857L21.6214 14.929L21.51 14.9795L21.535 14.866L21.449 14.7827L21.572 14.7694L21.6297 14.6675L21.6812 14.7729L21.8025 14.7931L21.7115 14.8713" fill="#FFFFEF"/>
<path fill-rule="evenodd" clip-rule="evenodd" d="M11.7425 14.3803L11.611 14.3044L11.4743 14.372L11.5048 14.2202L11.3993 14.1089L11.5503 14.0912L11.6211 13.9551L11.6843 14.096L11.8332 14.123L11.7216 14.2275" fill="#FFFFEF"/>
<path fill-rule="evenodd" clip-rule="evenodd" d="M11.7425 14.38L11.611 14.3041L11.4743 14.3717L11.5048 14.2199L11.3993 14.1086L11.5503 14.0909L11.6211 13.9548L11.6843 14.0957L11.8332 14.1227L11.7216 14.2272M13.8365 14.3796L13.705 14.3036L13.5684 14.3712L13.5989 14.2194L13.4934 14.1081L13.6444 14.0904L13.7152 13.9543L13.7784 14.0952L13.9273 14.1222L13.8157 14.2267M13.5764 15.0761L13.4449 15.0002L13.3082 15.0678L13.3388 14.9159L13.2333 14.8047L13.3841 14.787L13.455 14.6508L13.5182 14.7916L13.6671 14.8186L13.5554 14.9231M17.9245 13.8081L17.793 13.7321L17.6563 13.7997L17.6868 13.6479L17.5813 13.5367L17.7322 13.519L17.8031 13.3828L17.8663 13.5237L18.0152 13.5507L17.9035 13.6552M16.6486 13.8076L16.5171 13.7317L16.3804 13.7993L16.411 13.6474L16.3055 13.5362L16.4564 13.5185L16.5272 13.3823L16.5904 13.5232L16.7394 13.5502L16.6277 13.6547M13.1877 13.3628L13.1053 13.3152L13.0196 13.3575L13.0388 13.2624L12.9727 13.1927L13.0672 13.1816L13.1117 13.0963L13.1513 13.1846L13.2445 13.2016L13.1745 13.2671M21.5664 15.5363L21.4349 15.4604L21.2982 15.5279L21.3288 15.3761L21.2233 15.2648L21.3742 15.2471L21.445 15.1109L21.5082 15.2518L21.6571 15.2788L21.5455 15.3833M20.5039 15.6755L20.395 15.6125L20.2818 15.6686L20.3071 15.5425L20.2197 15.4501L20.3447 15.4354L20.4034 15.3223L20.4558 15.4393L20.5791 15.4618L20.4866 15.5485M21.0052 15.6634L20.9037 15.6047L20.7983 15.6569L20.8219 15.5397L20.7404 15.4538L20.8569 15.4401L20.9115 15.335L20.9603 15.4438L21.0751 15.4647L20.989 15.5454M22.4445 14.4074L22.3467 14.3509L22.2452 14.4012L22.2679 14.2883L22.1896 14.2056L22.3017 14.1925L22.3544 14.0913L22.4014 14.1959L22.5119 14.216L22.429 14.2936M20.4914 16.3844L20.3637 16.3146L20.2311 16.3766L20.2608 16.2373L20.1583 16.1352L20.3048 16.1189L20.3736 15.9939L20.4349 16.1232L20.5794 16.148L20.4711 16.244M20.4985 16.9564L20.382 16.8866L20.2611 16.9486L20.2882 16.8093L20.1947 16.7071L20.3284 16.6909L20.3911 16.5659L20.4471 16.6952L20.5789 16.72L20.48 16.8159M19.5336 15.6632L19.4358 15.6067L19.3342 15.657L19.357 15.5441L19.2786 15.4615L19.3907 15.4483L19.4434 15.3471L19.4904 15.4517L19.601 15.4718L19.518 15.5495M18.629 15.6632L18.5313 15.6067L18.4298 15.657L18.4525 15.5441L18.374 15.4615L18.4862 15.4483L18.5388 15.3471L18.5858 15.4517L18.6963 15.4718L18.6134 15.5495M17.093 14.32L16.9953 14.2636L16.8938 14.3138L16.9165 14.201L16.8381 14.1183L16.9502 14.1051L17.0029 14.0039L17.0499 14.1086L17.1605 14.1287L17.0775 14.2063M17.2642 17.0575L17.1814 17.0097L17.0954 17.0522L17.1147 16.9567L17.0482 16.8867L17.1432 16.8756L17.1878 16.7898L17.2276 16.8784L17.3213 16.8954L17.2509 16.9612M14.9444 12.6297L14.7473 12.516L14.5426 12.6173L14.5885 12.3899L14.4304 12.2232L14.6564 12.1967L14.7626 11.9927L14.8573 12.2037L15.0803 12.2442L14.913 12.4008" fill="#FFFFEF"/>
<path fill-rule="evenodd" clip-rule="evenodd" d="M22.9978 14.2909C23.095 14.0367 23.2203 13.6534 23.2869 13.3016C19.8998 10.3262 16.1239 8.80193 11.3529 9.11558C11.1818 9.44348 11.0449 9.78673 10.9294 10.1582C16.5826 9.61893 20.7262 12.1217 22.9979 14.2909L22.9978 14.2909Z" fill="white"/>
<path d="M21.4751 12.6182L21.5961 12.6844C21.5771 12.7273 21.5721 12.7649 21.5806 12.7969C21.5896 12.8291 21.6118 12.8573 21.6473 12.8813C21.6848 12.907 21.7185 12.9183 21.7481 12.9153C21.7781 12.9123 21.8004 12.9 21.8149 12.8786C21.8237 12.866 21.8277 12.8507 21.8261 12.8354C21.8248 12.8204 21.8165 12.8024 21.8014 12.7817C21.7909 12.7677 21.7654 12.738 21.7249 12.6928C21.6729 12.6348 21.6419 12.5859 21.6319 12.546C21.6179 12.4899 21.6264 12.439 21.6574 12.393C21.6774 12.3635 21.7042 12.3415 21.738 12.3271C21.7723 12.3126 21.8096 12.3094 21.85 12.3172C21.8905 12.3251 21.9332 12.3442 21.9775 12.3744C22.0501 12.4237 22.094 12.4768 22.109 12.5336C22.1242 12.5905 22.1148 12.6462 22.0807 12.7008L21.9605 12.6266C21.9755 12.5934 21.9793 12.5646 21.9714 12.5405C21.9641 12.5162 21.9439 12.493 21.9109 12.4706C21.8771 12.4476 21.8458 12.4365 21.8172 12.4375C21.8087 12.4375 21.8003 12.4396 21.7928 12.4437C21.7853 12.4478 21.779 12.4537 21.7744 12.4609C21.7651 12.4747 21.763 12.4904 21.7679 12.508C21.7744 12.5305 21.8013 12.5677 21.8492 12.6197C21.8968 12.6717 21.9294 12.7142 21.9467 12.7471C21.9644 12.7799 21.9725 12.8141 21.9708 12.8496C21.9696 12.8849 21.9566 12.9209 21.9319 12.9576C21.9096 12.9907 21.8781 13.0167 21.8413 13.0322C21.8033 13.0487 21.7628 13.0528 21.7194 13.0442C21.6764 13.0354 21.6297 13.0139 21.5795 12.9797C21.5064 12.9301 21.4615 12.8751 21.4452 12.8147C21.4291 12.7541 21.4389 12.6886 21.4752 12.6185L21.4751 12.6182ZM20.9012 12.2416L21.0248 12.3026C21.0075 12.3462 21.0039 12.384 21.0138 12.4156C21.0242 12.4474 21.0474 12.4747 21.0838 12.4973C21.1225 12.5214 21.1565 12.5313 21.1859 12.5271C21.2159 12.5228 21.2378 12.5098 21.2512 12.4878C21.2596 12.475 21.263 12.4595 21.2607 12.4443C21.2588 12.4292 21.2498 12.4116 21.2337 12.3914C21.2227 12.3778 21.1962 12.3494 21.1539 12.3058C21.0995 12.2499 21.0666 12.2023 21.055 12.1628C21.0388 12.1073 21.0453 12.0561 21.0742 12.0089C21.0929 11.9788 21.12 11.9548 21.1522 11.9399C21.1859 11.9241 21.2232 11.9193 21.2637 11.9254C21.3046 11.9318 21.348 11.9491 21.3935 11.9774C21.4681 12.0237 21.5139 12.075 21.5311 12.1311C21.5486 12.1874 21.5416 12.2435 21.5098 12.2994L21.3866 12.2301C21.4003 12.1963 21.4029 12.1675 21.3941 12.1437C21.3857 12.1196 21.3646 12.0972 21.3309 12.0762C21.296 12.0546 21.2644 12.0448 21.2359 12.0469C21.2174 12.0482 21.2035 12.0567 21.194 12.0721C21.1854 12.0862 21.1838 12.1018 21.1895 12.1193C21.1967 12.1415 21.2252 12.1776 21.275 12.2277C21.3247 12.2777 21.359 12.3188 21.3776 12.351C21.3966 12.383 21.406 12.4169 21.4057 12.4523C21.4061 12.4877 21.3944 12.5242 21.3712 12.562C21.3502 12.5959 21.3198 12.6231 21.2837 12.6402C21.2464 12.6582 21.2059 12.6639 21.1624 12.657C21.1191 12.65 21.0716 12.6302 21.02 12.5983C20.9451 12.5516 20.8981 12.4985 20.8792 12.4388C20.8605 12.3788 20.8677 12.3131 20.9011 12.2416L20.9012 12.2416ZM20.1909 12.0512L20.5547 11.4529L20.9965 11.7237L20.935 11.825L20.6135 11.6279L20.5328 11.7605L20.8319 11.9439L20.7707 12.0447L20.4715 11.8613L20.3726 12.0241L20.7055 12.2281L20.6441 12.329L20.1909 12.0511L20.1909 12.0512ZM19.1563 11.2016L19.2103 11.0966L19.4803 11.2364L19.353 11.4845C19.3135 11.4964 19.264 11.4993 19.2039 11.493C19.146 11.487 19.0898 11.4703 19.038 11.4437C18.973 11.41 18.9235 11.3673 18.8892 11.3151C18.8553 11.2637 18.8383 11.2031 18.8405 11.1416C18.8427 11.077 18.8594 11.0137 18.8894 10.9564C18.9226 10.8915 18.9659 10.8409 19.0189 10.8044C19.0717 10.7681 19.1314 10.7499 19.1974 10.7499C19.2478 10.7498 19.3026 10.7652 19.3619 10.7957C19.439 10.8357 19.4907 10.8831 19.5171 10.938C19.5441 10.9928 19.549 11.052 19.532 11.1158L19.3956 11.0748C19.4026 11.0397 19.3984 11.007 19.3831 10.9769C19.3683 10.9466 19.3428 10.9222 19.3067 10.9034C19.2519 10.8751 19.1994 10.8699 19.149 10.8882C19.099 10.9063 19.0565 10.9497 19.0213 11.0182C18.9833 11.0922 18.971 11.1562 18.9848 11.2103C18.9986 11.2639 19.032 11.3046 19.0852 11.3321C19.1114 11.3456 19.1402 11.3541 19.1717 11.3575C19.2037 11.3608 19.2327 11.36 19.2593 11.355L19.2998 11.2759L19.1562 11.2016L19.1563 11.2016ZM14.6442 10.0826L14.7459 9.38928L14.9545 9.42028L15.0106 9.91158L15.2036 9.45693L15.413 9.48783L15.3114 10.1813L15.1819 10.1622L15.2619 9.61633L15.0447 10.1419L14.9105 10.122L14.8538 9.55603L14.7738 10.1018L14.6442 10.0827V10.0826ZM13.9388 10.0007L14.004 9.30273L14.5194 9.35143L14.5085 9.46943L14.1334 9.43413L14.1189 9.58888L14.4678 9.62173L14.4568 9.73933L14.1078 9.70643L14.0901 9.89643L14.4783 9.93293L14.4673 10.0506L13.9388 10.0007Z" fill="#309E3A"/>
<path d="M11.6044 9.56417C11.6064 9.49267 11.6186 9.43317 11.6412 9.38517C11.6579 9.35008 11.6807 9.31819 11.7085 9.29097C11.7368 9.26337 11.7675 9.24317 11.8007 9.23047C11.8447 9.21312 11.8951 9.20522 11.9518 9.20672C12.0546 9.20972 12.1359 9.24392 12.1957 9.30957C12.2559 9.37532 12.2844 9.46527 12.2814 9.57932C12.2784 9.69232 12.2454 9.78017 12.1823 9.84252C12.1193 9.90452 12.0366 9.93422 11.9341 9.93137C11.8303 9.92857 11.7487 9.89457 11.6891 9.82952C11.6296 9.76412 11.6014 9.67562 11.6044 9.56417H11.6044Z" fill="#309E3A"/>
<path d="M11.7501 9.56283C11.7479 9.64213 11.7646 9.70283 11.7999 9.74498C11.8353 9.78683 11.8812 9.80848 11.9373 9.80998C11.9934 9.81148 12.0401 9.79248 12.077 9.75308C12.1143 9.71323 12.134 9.65273 12.1362 9.57143C12.1384 9.49118 12.1224 9.43078 12.0882 9.39033C12.0544 9.34983 12.0085 9.32883 11.9504 9.32723C11.8923 9.32573 11.8449 9.34448 11.8082 9.38363C11.7716 9.42248 11.7522 9.48223 11.7501 9.56283Z" fill="#F7FFFF"/>
<path d="M12.4319 9.92546L12.4401 9.22461L12.7367 9.22811C12.8114 9.22901 12.8654 9.23596 12.8989 9.24911C12.9328 9.26196 12.9596 9.28461 12.9796 9.31711C12.9995 9.34961 13.0092 9.38636 13.0088 9.42786C13.0081 9.48046 12.9922 9.52376 12.961 9.55776C12.9298 9.59151 12.8835 9.61251 12.8221 9.62076C12.8524 9.63891 12.8773 9.65876 12.8966 9.68041C12.9165 9.70191 12.9428 9.74016 12.9759 9.79506L13.0595 9.93276L12.8909 9.93076L12.7908 9.77706C12.7553 9.72216 12.7309 9.68766 12.7178 9.67346C12.7046 9.65896 12.6906 9.64911 12.6757 9.64381C12.6609 9.63831 12.6372 9.63531 12.6048 9.63496L12.5763 9.63456L12.5729 9.92716L12.4319 9.92551V9.92546Z" fill="#309E3A"/>
<path d="M12.5782 9.52258L12.6825 9.52378C12.7501 9.52458 12.7924 9.52228 12.8093 9.51668C12.8261 9.51108 12.8394 9.50143 12.8491 9.48748C12.8587 9.47353 12.8637 9.45613 12.8641 9.43508C12.8643 9.41148 12.8582 9.39243 12.8456 9.37798C12.8334 9.36318 12.8159 9.35368 12.7931 9.34963C12.7816 9.34793 12.7473 9.34663 12.6902 9.34603L12.5802 9.34473L12.5782 9.52248L12.5782 9.52258Z" fill="white"/>
<path d="M13.2295 9.25933L13.4869 9.27233C13.5449 9.27533 13.5889 9.28208 13.6189 9.29258C13.6584 9.30631 13.6936 9.33042 13.7207 9.36238C13.7483 9.39468 13.7686 9.43368 13.7816 9.47938C13.7946 9.52473 13.7994 9.58013 13.7961 9.64568C13.7932 9.70333 13.7835 9.75258 13.7671 9.79368C13.7471 9.84368 13.7202 9.88353 13.6862 9.91348C13.6607 9.93613 13.6267 9.95298 13.5845 9.96428C13.5529 9.97258 13.5111 9.97538 13.459 9.97278L13.1942 9.95928L13.2295 9.25928V9.25933Z" fill="#309E3A"/>
<path d="M13.3647 9.38433L13.3413 9.84803L13.4464 9.85328C13.4857 9.85538 13.5143 9.85453 13.5319 9.85098C13.5549 9.84633 13.5744 9.83758 13.5899 9.82468C13.6059 9.81168 13.6194 9.78993 13.6304 9.75918C13.6416 9.72818 13.6484 9.68568 13.6512 9.63153C13.654 9.57738 13.6512 9.53563 13.6432 9.50618C13.6352 9.47668 13.623 9.45353 13.6067 9.43633C13.5904 9.41923 13.5692 9.40718 13.5432 9.40013C13.5237 9.39463 13.4854 9.39048 13.4279 9.38763L13.3647 9.38428L13.3647 9.38433Z" fill="white"/>
<path d="M16.6608 10.5111L16.8238 9.82959L17.0438 9.88259C17.1271 9.90269 17.1807 9.91919 17.2043 9.93209C17.2408 9.95169 17.268 9.98189 17.286 10.0226C17.304 10.0631 17.3065 10.1103 17.2936 10.1646C17.2836 10.2064 17.2677 10.2398 17.2457 10.2646C17.2238 10.2896 17.1991 10.3073 17.1717 10.3181C17.1447 10.3287 17.1185 10.3336 17.0932 10.3331C17.059 10.3317 17.0107 10.3236 16.9487 10.3086L16.8594 10.287L16.7979 10.5441L16.6608 10.5111H16.6608Z" fill="#309E3A"/>
<path d="M16.9337 9.97754L16.8874 10.1709L16.9624 10.189C17.0165 10.202 17.0534 10.2072 17.0733 10.2044C17.0923 10.2021 17.1102 10.1938 17.1243 10.1809C17.1385 10.1679 17.1483 10.1508 17.1523 10.132C17.1583 10.1072 17.156 10.085 17.1453 10.0655C17.1348 10.046 17.1179 10.0306 17.0975 10.022C17.0819 10.0149 17.0495 10.0054 17 9.99354L16.9338 9.97754H16.9337Z" fill="white"/>
<path d="M17.3097 10.7054L17.5417 10.0444L17.8216 10.1434C17.892 10.1683 17.9409 10.1924 17.9684 10.2157C17.9964 10.2388 18.0146 10.2689 18.0231 10.306C18.0316 10.3432 18.0291 10.3813 18.0153 10.4203C17.9979 10.4699 17.9689 10.5058 17.9285 10.528C17.8882 10.5499 17.8376 10.5548 17.7769 10.5429C17.7997 10.5699 17.817 10.5967 17.8284 10.6234C17.8403 10.6502 17.8529 10.6949 17.8666 10.7575L17.9018 10.915L17.7428 10.8587L17.6972 10.6809C17.6811 10.6174 17.6691 10.5769 17.6612 10.5592C17.6533 10.5412 17.6432 10.5273 17.6308 10.5175C17.6185 10.5074 17.5972 10.497 17.5665 10.4861L17.5397 10.4765L17.4428 10.7525L17.3098 10.7054H17.3097Z" fill="#309E3A"/>
<path d="M17.5763 10.3714L17.6746 10.4061C17.7384 10.4287 17.7791 10.4401 17.7969 10.4403C17.8146 10.4405 17.8304 10.4356 17.844 10.4255C17.8576 10.4155 17.8679 10.4005 17.8748 10.3807C17.8826 10.3585 17.8829 10.3385 17.8757 10.3207C17.8689 10.3027 17.8553 10.2882 17.835 10.2769C17.8247 10.2716 17.7927 10.2594 17.7388 10.2404L17.6351 10.2036L17.5762 10.3714L17.5763 10.3714Z" fill="white"/>
<path d="M18.1299 10.6799C18.1511 10.6117 18.179 10.5577 18.2135 10.5179C18.2391 10.4886 18.2697 10.464 18.3039 10.4454C18.3387 10.4265 18.3738 10.4155 18.409 10.4121C18.456 10.4075 18.5067 10.4136 18.5609 10.4306C18.6592 10.4613 18.7281 10.5165 18.7679 10.596C18.8081 10.6757 18.8113 10.77 18.7774 10.8789C18.7439 10.987 18.6884 11.0624 18.6109 11.1053C18.5335 11.1479 18.4458 11.1538 18.3479 11.1232C18.2488 11.0922 18.1794 11.0373 18.1397 10.9585C18.1001 10.8793 18.0968 10.7865 18.1299 10.68L18.1299 10.6799Z" fill="#309E3A"/>
<path d="M18.2706 10.7193C18.2471 10.795 18.2466 10.858 18.2693 10.9082C18.2921 10.958 18.3303 10.9914 18.384 11.0082C18.4376 11.0249 18.4875 11.0194 18.5338 10.9914C18.5804 10.9633 18.6158 10.9104 18.6399 10.8328C18.6637 10.7561 18.6646 10.6937 18.6427 10.6453C18.6211 10.5972 18.5825 10.5644 18.527 10.5471C18.4715 10.5298 18.4209 10.535 18.375 10.5627C18.3293 10.5901 18.2945 10.6423 18.2705 10.7194L18.2706 10.7193Z" fill="white"/>
<path d="M19.4946 11.6562L19.8153 11.0337L20.0788 11.1705C20.1451 11.205 20.1903 11.2355 20.2143 11.2625C20.2388 11.2891 20.2527 11.3215 20.2561 11.3595C20.2594 11.3975 20.2515 11.4347 20.2326 11.4716C20.2086 11.5183 20.1749 11.5498 20.1317 11.5662C20.0887 11.5823 20.0381 11.5802 19.9796 11.5598C19.9985 11.5897 20.0118 11.6188 20.0196 11.6468C20.0275 11.675 20.034 11.721 20.0389 11.7849L20.052 11.9457L19.9024 11.8679L19.8816 11.6855C19.8744 11.6203 19.8681 11.5785 19.8627 11.5599C19.8575 11.5411 19.8492 11.5258 19.8384 11.5144C19.8277 11.5028 19.8079 11.4894 19.7791 11.4745L19.7537 11.4613L19.6199 11.7212L19.4946 11.6562H19.4946Z" fill="#309E3A"/>
<path d="M19.8045 11.3616L19.8972 11.4097C19.9572 11.4409 19.996 11.4578 20.0137 11.4605C20.0312 11.4632 20.0474 11.4605 20.0623 11.4524C20.0771 11.4444 20.0893 11.431 20.099 11.4122C20.1098 11.3912 20.1128 11.3715 20.1082 11.3529C20.1038 11.3342 20.0924 11.3178 20.0739 11.3039C20.0644 11.2972 20.0344 11.2807 19.9835 11.2543L19.8859 11.2036L19.8044 11.3616L19.8045 11.3616Z" fill="white"/>
<path d="M22.0847 12.9353C22.1246 12.8762 22.1668 12.8325 22.2115 12.8043C22.2445 12.7838 22.2808 12.7692 22.3188 12.7612C22.355 12.7533 22.3924 12.7528 22.4288 12.7598C22.4753 12.769 22.522 12.7896 22.5691 12.8216C22.6543 12.8794 22.7045 12.9522 22.7198 13.0399C22.7353 13.1278 22.7111 13.2189 22.6474 13.3135C22.5842 13.4071 22.5095 13.4634 22.423 13.482C22.3366 13.5002 22.251 13.4806 22.166 13.4229C22.0801 13.3645 22.0294 13.2918 22.014 13.2048C21.9988 13.1175 22.0224 13.0276 22.0846 12.9353L22.0847 12.9353Z" fill="#309E3A"/>
<path d="M22.2083 13.0127C22.164 13.0785 22.1455 13.1386 22.1527 13.1932C22.1602 13.2475 22.1872 13.2904 22.2337 13.3221C22.2803 13.3537 22.3297 13.3628 22.382 13.3496C22.4348 13.3361 22.4839 13.2957 22.5292 13.2283C22.574 13.1618 22.5929 13.1023 22.5857 13.0497C22.5788 12.9974 22.5513 12.9548 22.5032 12.9221C22.4551 12.8894 22.4051 12.8796 22.3532 12.893C22.3016 12.906 22.2533 12.946 22.2082 13.0127H22.2083Z" fill="white"/>
<path d="M15.8705 10.2264L15.9829 9.73438L16.3463 9.81813L16.3274 9.90123L16.0631 9.84037L16.0379 9.94938L16.2842 10.0062L16.2651 10.0889L16.0192 10.0323L15.9885 10.1662L16.2622 10.2292L16.2433 10.3122L15.8705 10.2264Z" fill="#309E3A"/>
</g>
<defs>
<clipPath id="clip0_103_333">
<rect width="32" height="24" fill="white" transform="translate(0.779358)"/>
</clipPath>
</defs>
</svg>
