<svg width="100" height="28" viewBox="0 0 100 28" fill="none" xmlns="http://www.w3.org/2000/svg">
<path d="M3.89674 12.006C4.10269 12.1803 4.26565 12.3998 4.37295 12.6473C4.48024 12.8948 4.52897 13.1638 4.51534 13.4332C4.5286 13.7026 4.4797 13.9715 4.37243 14.2189C4.26516 14.4664 4.1024 14.6859 3.89674 14.8604C3.40772 15.2293 2.80345 15.4123 2.19191 15.3767H0.798831V17.0523H0V11.4897H2.1773C2.79376 11.4506 3.40382 11.6338 3.89674 12.006ZM3.30735 14.3587C3.44131 14.2461 3.54716 14.1038 3.61649 13.9432C3.68583 13.7825 3.71674 13.6079 3.70677 13.4332C3.71675 13.2578 3.68587 13.0825 3.61656 12.921C3.54724 12.7596 3.4414 12.6165 3.30735 12.5029C2.97015 12.2679 2.56307 12.1545 2.15295 12.1814H0.798831V14.6851H2.15295C2.5639 14.7129 2.97181 14.5976 3.30735 14.3587ZM8.34389 16.7601C7.90199 16.5223 7.53321 16.1687 7.27715 15.7372C7.02083 15.2931 6.88797 14.7886 6.89235 14.2759C6.88629 13.763 7.01927 13.258 7.27715 12.8146C7.53041 12.3809 7.8999 12.0266 8.34389 11.7917C8.81176 11.5456 9.3325 11.4169 9.86118 11.4169C10.3899 11.4169 10.9106 11.5456 11.3785 11.7917C11.8197 12.0264 12.1873 12.3788 12.4403 12.8097C12.6894 13.2565 12.8202 13.7595 12.8202 14.271C12.8202 14.7825 12.6894 15.2856 12.4403 15.7323C12.1862 16.1637 11.819 16.5174 11.3785 16.7552C10.9097 16.9986 10.3893 17.1256 9.86118 17.1256C9.33303 17.1256 8.81262 16.9986 8.34389 16.7552V16.7601ZM10.9693 16.1415C11.292 15.9592 11.5595 15.6934 11.7438 15.3719C11.9293 15.0364 12.0266 14.6593 12.0266 14.2759C12.0266 13.8925 11.9293 13.5154 11.7438 13.1799C11.5582 12.8594 11.291 12.5939 10.9693 12.4103C10.6314 12.2225 10.2501 12.1268 9.86361 12.1327C9.4756 12.1273 9.09287 12.223 8.75304 12.4103C8.42799 12.5911 8.1585 12.8572 7.9737 13.1799C7.7882 13.5154 7.69089 13.8925 7.69089 14.2759C7.69089 14.6593 7.7882 15.0364 7.9737 15.3719C8.16106 15.6977 8.43616 15.9643 8.76766 16.1415C9.10748 16.3288 9.49022 16.4245 9.87823 16.4191C10.2598 16.4225 10.6357 16.3268 10.9693 16.1415ZM23.3415 11.4897L21.4759 17.0523H20.6381L19.1184 12.5954L17.5938 17.0523H16.7414L14.8758 11.4897H15.699L17.2041 16.0197L18.7725 11.4897H19.508L21.0472 16.044L22.5816 11.4897H23.3415ZM29.9562 16.3753V17.0523H25.9084V11.4897H29.8441V12.1814H26.7024V13.896H29.4983V14.573H26.7024V16.3753H29.9562ZM36.5709 17.0523L35.3678 15.3378H33.6386V17.0523H32.8397V11.4897H35.017C35.6286 11.4541 36.2328 11.6371 36.7219 12.006C36.9278 12.1803 37.0908 12.3998 37.1981 12.6473C37.3054 12.8948 37.3541 13.1638 37.3405 13.4332C37.349 13.8245 37.2367 14.2089 37.019 14.5341C36.7934 14.8449 36.4742 15.0754 36.1081 15.1916L37.4379 17.0523H36.5709ZM36.1471 14.349C36.2759 14.235 36.3774 14.0935 36.444 13.935C36.5106 13.7765 36.5407 13.605 36.5319 13.4332C36.5419 13.2578 36.511 13.0825 36.4417 12.921C36.3724 12.7596 36.2665 12.6165 36.1325 12.5029C35.7993 12.2711 35.3979 12.1579 34.9927 12.1814H33.6386V14.6899H34.9927C35.4036 14.7178 35.8116 14.6024 36.1471 14.3636V14.349ZM44.2767 16.3753V17.0523H40.2241V11.4897H44.1646V12.1814H41.0229V13.896H43.8383V14.573H41.0229V16.3753H44.2767ZM47.1603 11.4897H49.508C50.053 11.4792 50.5925 11.5995 51.0813 11.8404C51.5212 12.0569 51.8897 12.395 52.1432 12.8146C52.395 13.2605 52.5274 13.7638 52.5274 14.2759C52.5274 14.788 52.395 15.2913 52.1432 15.7372C51.8885 16.1558 51.5203 16.4936 51.0813 16.7114C50.5925 16.9523 50.053 17.0726 49.508 17.0621H47.1603V11.4897ZM49.4642 16.3606C49.8755 16.3669 50.2825 16.2768 50.6527 16.0976C50.9833 15.9326 51.259 15.6755 51.4467 15.3572C51.6287 15.0206 51.724 14.644 51.724 14.2613C51.724 13.8786 51.6287 13.5019 51.4467 13.1653C51.2591 12.8536 50.985 12.6031 50.6576 12.4444C50.2882 12.2629 49.8806 12.1727 49.4691 12.1814H47.9591V16.3753L49.4642 16.3606ZM63.5899 14.6656C63.7829 14.9234 63.881 15.24 63.8675 15.5618C63.8777 15.7786 63.833 15.9945 63.7377 16.1894C63.6423 16.3844 63.4993 16.5522 63.322 16.6773C62.8452 16.9671 62.2908 17.1031 61.734 17.0669H59.0745V11.4897H61.5733C62.088 11.4623 62.5984 11.5951 63.0346 11.8697C63.2026 11.9897 63.3381 12.1495 63.4291 12.3349C63.5201 12.5202 63.5636 12.7252 63.5558 12.9315C63.5625 13.1977 63.4914 13.4601 63.3512 13.6865C63.2188 13.897 63.0297 14.0659 62.8056 14.1736C63.1147 14.2452 63.3909 14.4184 63.5899 14.6656ZM59.8685 12.1327V13.9203H61.5051C61.8358 13.9394 62.1648 13.8597 62.4501 13.6914C62.557 13.6174 62.6432 13.5172 62.7003 13.4003C62.7575 13.2835 62.7837 13.1539 62.7764 13.0241C62.7838 12.8949 62.7576 12.766 62.7004 12.6499C62.6432 12.5338 62.557 12.4345 62.4501 12.3616C62.1648 12.1933 61.8358 12.1136 61.5051 12.1327H59.8685ZM62.7228 16.195C62.8366 16.1199 62.9282 16.0157 62.9882 15.8932C63.0481 15.7707 63.0742 15.6345 63.0638 15.4985C63.0638 14.875 62.6108 14.5633 61.7048 14.5633H59.8685V16.4191H61.7048C62.0586 16.4427 62.4117 16.3649 62.7228 16.195ZM68.7141 15.138V17.0864H67.925V15.104L65.7087 11.4702H66.5611L68.3488 14.3928L70.1413 11.4702H70.9303L68.7141 15.138Z" fill="#808285"/>
<path d="M86.7657 27.4469C94.0748 27.4469 100 21.5217 100 14.2126C100 6.90347 94.0748 0.978271 86.7657 0.978271C79.4566 0.978271 73.5314 6.90347 73.5314 14.2126C73.5314 21.5217 79.4566 27.4469 86.7657 27.4469Z" fill="#F3741F"/>
<path d="M76.907 10.121H78.3682V19.59H76.907V10.121ZM94.3692 10.121V11.48H91.9338V19.59H90.4725V11.48H88.0711V10.121H94.3692ZM95.1632 10.121H96.6245V19.59H95.1632V10.121ZM79.547 10.1356V19.59H81.018V12.9169L86.6098 19.59H88.0565L88.0711 10.121H86.6098V17.0328L81.018 10.1356H79.547Z" fill="white"/>
</svg>
