<svg width="24" height="19" viewBox="0 0 24 19" fill="none" xmlns="http://www.w3.org/2000/svg">
<path d="M5.91646 8.17578C5.91646 8.17578 5.80513 8.28711 5.58247 8.50977C5.35982 8.73242 4.9438 8.84375 4.33443 8.84375C3.72505 8.84375 3.19771 8.62109 2.7524 8.17578C2.30708 7.73047 2.08443 7.20312 2.08443 6.59375C2.08443 5.98438 2.30708 5.45703 2.7524 5.01172C3.19771 4.56641 3.72505 4.34375 4.33443 4.34375C4.9438 4.34375 5.47115 4.56641 5.91646 5.01172C6.36177 5.45703 6.58443 5.98438 6.58443 6.59375C6.58443 7.20312 6.36177 7.73047 5.91646 8.17578ZM21.6665 8.17578C21.6665 8.17578 21.5551 8.28711 21.3325 8.50977C21.1098 8.73242 20.6938 8.84375 20.0844 8.84375C19.4751 8.84375 18.9477 8.62109 18.5024 8.17578C18.0571 7.73047 17.8344 7.20312 17.8344 6.59375C17.8344 5.98438 18.0571 5.45703 18.5024 5.01172C18.9477 4.56641 19.4751 4.34375 20.0844 4.34375C20.6938 4.34375 21.2211 4.56641 21.6665 5.01172C22.1118 5.45703 22.3344 5.98438 22.3344 6.59375C22.3344 7.20312 22.1118 7.73047 21.6665 8.17578ZM21.2094 9.96875C21.8188 9.96875 22.3461 10.1914 22.7915 10.6367C23.2368 11.082 23.4594 11.6094 23.4594 12.2188V13.3438C23.4594 13.6484 23.3481 13.9121 23.1254 14.1348C22.9028 14.3574 22.6391 14.4688 22.3344 14.4688H20.0141C19.8969 13.6484 19.604 12.8984 19.1352 12.2188C18.6665 11.5391 18.0805 11.0117 17.3774 10.6367C17.8227 10.1914 18.3501 9.96875 18.9594 9.96875H21.2094ZM14.9868 8.80859C14.9868 8.80859 14.7934 9.00195 14.4067 9.38867C14.02 9.77539 13.2876 9.96875 12.2094 9.96875C11.1313 9.96875 10.2055 9.58203 9.43208 8.80859C8.65865 8.03516 8.27193 7.10938 8.27193 6.03125C8.27193 4.95312 8.65865 4.02734 9.43208 3.25391C10.2055 2.48047 11.1313 2.09375 12.2094 2.09375C13.2876 2.09375 14.2133 2.48047 14.9868 3.25391C15.7602 4.02734 16.1469 4.95312 16.1469 6.03125C16.1469 7.10938 15.7602 8.03516 14.9868 8.80859ZM14.9165 11.0938C16.0415 11.0938 16.9965 11.4863 17.7817 12.2715C18.5668 13.0566 18.9594 14.0117 18.9594 15.1367V16.1562C18.9594 16.625 18.7954 17.0234 18.4672 17.3516C18.1391 17.6797 17.7407 17.8438 17.2719 17.8438H7.14693C6.67818 17.8438 6.27974 17.6797 5.95161 17.3516C5.62349 17.0234 5.45943 16.625 5.45943 16.1562V15.1367C5.45943 14.0117 5.85201 13.0566 6.63716 12.2715C7.42232 11.4863 8.3774 11.0938 9.5024 11.0938H9.8188C10.5922 11.4688 11.3891 11.6562 12.2094 11.6562C13.0297 11.6562 13.8266 11.4688 14.6001 11.0938H14.9165ZM7.04146 10.6367C6.33833 11.0117 5.7524 11.5391 5.28365 12.2188C4.8149 12.8984 4.52193 13.6484 4.40474 14.4688H2.08443C1.77974 14.4688 1.51607 14.3574 1.29341 14.1348C1.07075 13.9121 0.959427 13.6484 0.959427 13.3438V12.2188C0.959427 11.6094 1.18208 11.082 1.6274 10.6367C2.07271 10.1914 2.60005 9.96875 3.20943 9.96875H5.45943C6.0688 9.96875 6.59615 10.1914 7.04146 10.6367Z" fill="#737373"/>
</svg>
