<svg width="15" height="15" viewBox="0 0 15 15" fill="none" xmlns="http://www.w3.org/2000/svg">
<path d="M13.6469 13.6084H2.27193C1.90734 13.6084 1.59745 13.4808 1.34224 13.2256C1.08703 12.9704 0.959427 12.6605 0.959427 12.2959V2.6709C0.959427 2.30632 1.08703 1.99642 1.34224 1.74121C1.59745 1.486 1.90734 1.3584 2.27193 1.3584H13.6469C14.0115 1.3584 14.3214 1.486 14.5766 1.74121C14.8318 1.99642 14.9594 2.30632 14.9594 2.6709V12.2959C14.9594 12.6605 14.8318 12.9704 14.5766 13.2256C14.3214 13.4808 14.0115 13.6084 13.6469 13.6084ZM5.23872 4.0791C5.23872 4.0791 5.18632 4.02669 5.0815 3.92188C4.97668 3.81706 4.76932 3.76465 4.45943 3.76465C4.14953 3.76465 3.88977 3.86947 3.68013 4.0791C3.47049 4.28874 3.36568 4.5485 3.36568 4.8584C3.36568 5.16829 3.47049 5.42806 3.68013 5.6377C3.88977 5.84733 4.14953 5.95215 4.45943 5.95215C4.76932 5.95215 5.02909 5.84733 5.23872 5.6377C5.44836 5.42806 5.55318 5.16829 5.55318 4.8584C5.55318 4.5485 5.44836 4.28874 5.23872 4.0791ZM5.23872 6.7041C5.23872 6.7041 5.18632 6.65169 5.0815 6.54688C4.97668 6.44206 4.76932 6.38965 4.45943 6.38965C4.14953 6.38965 3.88977 6.49447 3.68013 6.7041C3.47049 6.91374 3.36568 7.1735 3.36568 7.4834C3.36568 7.79329 3.47049 8.05306 3.68013 8.2627C3.88977 8.47233 4.14953 8.57715 4.45943 8.57715C4.76932 8.57715 5.02909 8.47233 5.23872 8.2627C5.44836 8.05306 5.55318 7.79329 5.55318 7.4834C5.55318 7.1735 5.44836 6.91374 5.23872 6.7041ZM5.23872 9.3291C5.23872 9.3291 5.18632 9.27669 5.0815 9.17188C4.97668 9.06706 4.76932 9.01465 4.45943 9.01465C4.14953 9.01465 3.88977 9.11947 3.68013 9.3291C3.47049 9.53874 3.36568 9.7985 3.36568 10.1084C3.36568 10.4183 3.47049 10.6781 3.68013 10.8877C3.88977 11.0973 4.14953 11.2021 4.45943 11.2021C4.76932 11.2021 5.02909 11.0973 5.23872 10.8877C5.44836 10.6781 5.55318 10.4183 5.55318 10.1084C5.55318 9.7985 5.44836 9.53874 5.23872 9.3291ZM12.3344 5.2959V4.4209C12.3344 4.20215 12.2251 4.09277 12.0063 4.09277H6.53755C6.3188 4.09277 6.20943 4.20215 6.20943 4.4209V5.2959C6.20943 5.51465 6.3188 5.62402 6.53755 5.62402H12.0063C12.2251 5.62402 12.3344 5.51465 12.3344 5.2959ZM12.3344 7.9209V7.0459C12.3344 6.82715 12.2251 6.71777 12.0063 6.71777H6.53755C6.3188 6.71777 6.20943 6.82715 6.20943 7.0459V7.9209C6.20943 8.13965 6.3188 8.24902 6.53755 8.24902H12.0063C12.2251 8.24902 12.3344 8.13965 12.3344 7.9209ZM12.3344 10.5459V9.6709C12.3344 9.45215 12.2251 9.34277 12.0063 9.34277H6.53755C6.3188 9.34277 6.20943 9.45215 6.20943 9.6709V10.5459C6.20943 10.7646 6.3188 10.874 6.53755 10.874H12.0063C12.2251 10.874 12.3344 10.7646 12.3344 10.5459Z" fill="#737373"/>
</svg>
