<svg width="22" height="19" viewBox="0 0 22 19" fill="none" xmlns="http://www.w3.org/2000/svg">
<path d="M10.8032 5.37158C10.8969 5.32471 10.9907 5.30127 11.0844 5.30127C11.1782 5.30127 11.2719 5.32471 11.3657 5.37158L17.8344 10.7153V16.481C17.8344 16.645 17.7817 16.7798 17.6762 16.8853C17.5708 16.9907 17.436 17.0435 17.2719 17.0435H13.3344C13.1704 17.0435 13.0356 16.9849 12.9301 16.8677C12.8247 16.7505 12.7719 16.6216 12.7719 16.481V13.106C12.7719 12.9419 12.7192 12.8071 12.6137 12.7017C12.5083 12.5962 12.3735 12.5435 12.2094 12.5435H9.95943C9.79536 12.5435 9.6606 12.5962 9.55513 12.7017C9.44966 12.8071 9.39693 12.9419 9.39693 13.106V16.481C9.39693 16.6216 9.34419 16.7505 9.23872 16.8677C9.13326 16.9849 8.99849 17.0435 8.83443 17.0435H4.89693C4.73286 17.0435 4.5981 16.9907 4.49263 16.8853C4.38716 16.7798 4.33443 16.645 4.33443 16.481V10.7153L10.8032 5.37158ZM21.0688 8.99268C21.1626 9.08643 21.2094 9.20361 21.2094 9.34424C21.2094 9.43799 21.1743 9.52002 21.104 9.59033L20.2251 10.6802C20.1313 10.7974 20.0258 10.856 19.9086 10.856C19.7915 10.856 19.6977 10.8208 19.6274 10.7505L11.3657 3.93018C11.2719 3.8833 11.1782 3.85986 11.0844 3.85986C10.9907 3.85986 10.8969 3.8833 10.8032 3.93018L2.54146 10.7505C2.47115 10.8208 2.38911 10.856 2.29536 10.856C2.15474 10.856 2.03755 10.7974 1.9438 10.6802L1.0649 9.59033C0.994583 9.52002 0.959427 9.43799 0.959427 9.34424C0.959427 9.20361 1.0063 9.08643 1.10005 8.99268L9.99458 1.68018C10.3227 1.42236 10.686 1.29346 11.0844 1.29346C11.4829 1.29346 11.8344 1.42236 12.1391 1.68018L15.3032 4.28174V1.71533C15.3032 1.59814 15.3442 1.49854 15.4262 1.4165C15.5083 1.33447 15.6079 1.29346 15.7251 1.29346H17.6938C17.811 1.29346 17.9106 1.33447 17.9926 1.4165C18.0747 1.49854 18.1157 1.59814 18.1157 1.71533V6.60205L21.0688 8.99268Z" fill="#737373"/>
</svg>
