<svg width="25" height="25" viewBox="0 0 25 25" fill="none" xmlns="http://www.w3.org/2000/svg">
<g opacity="0.7">
<path d="M7.28755 13.251C8.16255 14.126 9.22505 14.5635 10.4751 14.5635C11.7251 14.5635 12.7876 14.126 13.6626 13.251C14.5376 12.376 14.9751 11.3135 14.9751 10.0635C14.9751 8.81348 14.5376 7.75098 13.6626 6.87598C12.7876 6.00098 11.7251 5.56348 10.4751 5.56348C9.22505 5.56348 8.16255 6.00098 7.28755 6.87598C6.41255 7.75098 5.97505 8.81348 5.97505 10.0635C5.97505 11.3135 6.41255 12.376 7.28755 13.251ZM16.4751 14.5635L21.4438 19.5322L19.9438 21.0322L14.9751 16.0635V15.2666L14.6938 14.9854C13.5063 16.0166 12.1001 16.5322 10.4751 16.5322C8.66255 16.5322 7.11568 15.9072 5.83443 14.6572C4.58443 13.4072 3.95943 11.876 3.95943 10.0635C3.95943 8.25098 4.58443 6.71973 5.83443 5.46973C7.11568 4.18848 8.66255 3.54785 10.4751 3.54785C12.2876 3.54785 13.8188 4.18848 15.0688 5.46973C16.3188 6.71973 16.9438 8.25098 16.9438 10.0635C16.9438 10.7197 16.7876 11.4697 16.4751 12.3135C16.1626 13.126 15.8032 13.7822 15.3969 14.2822L15.6782 14.5635H16.4751Z" fill="#656565"/>
</g>
</svg>
