<svg width="28" height="25" viewBox="0 0 28 25" fill="none" xmlns="http://www.w3.org/2000/svg">
<path d="M13.5939 7.51353C13.7157 7.4526 13.8376 7.42214 13.9594 7.42214C14.0813 7.42214 14.2031 7.4526 14.325 7.51353L22.7327 14.4591V21.953C22.7327 22.1662 22.6642 22.3414 22.5271 22.4785C22.39 22.6155 22.2149 22.6841 22.0016 22.6841H16.8839C16.6706 22.6841 16.4955 22.6079 16.3584 22.4556C16.2213 22.3033 16.1527 22.1357 16.1527 21.953V17.5663C16.1527 17.3531 16.0842 17.1779 15.9471 17.0408C15.81 16.9037 15.6349 16.8352 15.4216 16.8352H12.4972C12.2839 16.8352 12.1088 16.9037 11.9717 17.0408C11.8346 17.1779 11.7661 17.3531 11.7661 17.5663V21.953C11.7661 22.1357 11.6975 22.3033 11.5604 22.4556C11.4234 22.6079 11.2482 22.6841 11.035 22.6841H5.91719C5.70395 22.6841 5.52878 22.6155 5.3917 22.4785C5.25462 22.3414 5.18607 22.1662 5.18607 21.953V14.4591L13.5939 7.51353ZM26.9366 12.2201C27.0585 12.3419 27.1194 12.4942 27.1194 12.677C27.1194 12.7989 27.0737 12.9055 26.9823 12.9969L25.84 14.4134C25.7181 14.5657 25.581 14.6419 25.4287 14.6419C25.2764 14.6419 25.1545 14.5962 25.0632 14.5048L14.325 5.64005C14.2031 5.57913 14.0813 5.54867 13.9594 5.54867C13.8376 5.54867 13.7157 5.57913 13.5939 5.64005L2.85566 14.5048C2.76427 14.5962 2.65765 14.6419 2.5358 14.6419C2.35302 14.6419 2.2007 14.5657 2.07885 14.4134L0.936491 12.9969C0.845102 12.9055 0.799408 12.7989 0.799408 12.677C0.799408 12.4942 0.860334 12.3419 0.982186 12.2201L12.5429 2.71561C12.9694 2.38052 13.4415 2.21297 13.9594 2.21297C14.4773 2.21297 14.9342 2.38052 15.3302 2.71561L19.4427 6.097V2.7613C19.4427 2.60899 19.4961 2.47952 19.6027 2.3729C19.7093 2.26628 19.8388 2.21297 19.9911 2.21297H22.55C22.7023 2.21297 22.8317 2.26628 22.9384 2.3729C23.045 2.47952 23.0983 2.60899 23.0983 2.7613V9.11283L26.9366 12.2201Z" fill="white"/>
</svg>
