<svg width="100" height="27" viewBox="0 0 100 27" fill="none" xmlns="http://www.w3.org/2000/svg">
<path d="M3.89674 11.0278C4.10269 11.202 4.26565 11.4215 4.37295 11.669C4.48024 11.9166 4.52897 12.1855 4.51534 12.455C4.5286 12.7244 4.4797 12.9932 4.37243 13.2407C4.26516 13.4881 4.1024 13.7076 3.89674 13.8821C3.40772 14.2511 2.80345 14.4341 2.19191 14.3985H0.798831V16.074H0V10.5115H2.1773C2.79376 10.4723 3.40382 10.6555 3.89674 11.0278ZM3.30735 13.3804C3.44131 13.2678 3.54716 13.1256 3.61649 12.9649C3.68583 12.8043 3.71674 12.6296 3.70677 12.455C3.71675 12.2795 3.68587 12.1042 3.61656 11.9428C3.54724 11.7813 3.4414 11.6382 3.30735 11.5246C2.97015 11.2896 2.56307 11.1763 2.15295 11.2031H0.798831V13.7068H2.15295C2.5639 13.7346 2.97181 13.6193 3.30735 13.3804ZM8.34389 15.7818C7.90199 15.5441 7.53321 15.1904 7.27715 14.7589C7.02083 14.3149 6.88797 13.8103 6.89235 13.2976C6.88629 12.7847 7.01927 12.2797 7.27715 11.8363C7.53041 11.4026 7.8999 11.0483 8.34389 10.8135C8.81176 10.5673 9.3325 10.4387 9.86118 10.4387C10.3899 10.4387 10.9106 10.5673 11.3785 10.8135C11.8197 11.0481 12.1873 11.4005 12.4403 11.8315C12.6894 12.2782 12.8202 12.7812 12.8202 13.2928C12.8202 13.8043 12.6894 14.3073 12.4403 14.754C12.1862 15.1854 11.819 15.5391 11.3785 15.7769C10.9097 16.0203 10.3893 16.1473 9.86118 16.1473C9.33303 16.1473 8.81262 16.0203 8.34389 15.7769V15.7818ZM10.9693 15.1632C11.292 14.981 11.5595 14.7151 11.7438 14.3936C11.9293 14.0581 12.0266 13.681 12.0266 13.2976C12.0266 12.9143 11.9293 12.5372 11.7438 12.2017C11.5582 11.8812 11.291 11.6156 10.9693 11.4321C10.6314 11.2443 10.2501 11.1485 9.86361 11.1544C9.4756 11.149 9.09287 11.2447 8.75304 11.4321C8.42799 11.6128 8.1585 11.8789 7.9737 12.2017C7.7882 12.5372 7.69089 12.9143 7.69089 13.2976C7.69089 13.681 7.7882 14.0581 7.9737 14.3936C8.16106 14.7194 8.43616 14.9861 8.76766 15.1632C9.10748 15.3505 9.49022 15.4462 9.87823 15.4408C10.2598 15.4442 10.6357 15.3485 10.9693 15.1632ZM23.3414 10.5115L21.4759 16.074H20.6381L19.1184 11.6172L17.5938 16.074H16.7414L14.8758 10.5115H15.699L17.2041 15.0414L18.7725 10.5115H19.508L21.0472 15.0658L22.5816 10.5115H23.3414ZM29.9562 15.397V16.074H25.9084V10.5115H29.8441V11.2031H26.7024V12.9177H29.4983V13.5947H26.7024V15.397H29.9562ZM36.5709 16.074L35.3678 14.3595H33.6386V16.074H32.8397V10.5115H35.017C35.6286 10.4758 36.2328 10.6589 36.7219 11.0278C36.9278 11.202 37.0908 11.4215 37.1981 11.669C37.3054 11.9166 37.3541 12.1855 37.3405 12.455C37.349 12.8462 37.2367 13.2306 37.019 13.5558C36.7934 13.8667 36.4742 14.0971 36.1081 14.2134L37.4379 16.074H36.5709ZM36.1471 13.3707C36.2759 13.2568 36.3774 13.1153 36.444 12.9567C36.5106 12.7982 36.5407 12.6267 36.5319 12.455C36.5419 12.2795 36.511 12.1042 36.4417 11.9428C36.3724 11.7813 36.2665 11.6382 36.1325 11.5246C35.7993 11.2928 35.3979 11.1796 34.9927 11.2031H33.6386V13.7117H34.9927C35.4036 13.7395 35.8116 13.6242 36.1471 13.3853V13.3707ZM44.2767 15.397V16.074H40.2241V10.5115H44.1646V11.2031H41.0229V12.9177H43.8383V13.5947H41.0229V15.397H44.2767ZM47.1603 10.5115H49.508C50.053 10.5009 50.5925 10.6212 51.0813 10.8622C51.5212 11.0786 51.8897 11.4167 52.1432 11.8363C52.395 12.2822 52.5274 12.7856 52.5274 13.2976C52.5274 13.8097 52.395 14.313 52.1432 14.7589C51.8885 15.1775 51.5203 15.5153 51.0813 15.7331C50.5925 15.9741 50.053 16.0943 49.508 16.0838H47.1603V10.5115ZM49.4642 15.3824C49.8755 15.3887 50.2825 15.2986 50.6527 15.1193C50.9833 14.9543 51.259 14.6972 51.4467 14.379C51.6287 14.0424 51.724 13.6657 51.724 13.283C51.724 12.9003 51.6287 12.5237 51.4467 12.1871C51.2591 11.8753 50.985 11.6248 50.6576 11.4662C50.2882 11.2846 49.8806 11.1944 49.4691 11.2031H47.9591V15.397L49.4642 15.3824ZM63.5899 13.6873C63.7829 13.9451 63.881 14.2617 63.8675 14.5835C63.8777 14.8003 63.833 15.0162 63.7377 15.2112C63.6423 15.4061 63.4993 15.5739 63.322 15.699C62.8452 15.9888 62.2908 16.1248 61.734 16.0887H59.0745V10.5115H61.5733C62.088 10.4841 62.5984 10.6168 63.0346 10.8914C63.2026 11.0114 63.3381 11.1713 63.4291 11.3566C63.5201 11.5419 63.5636 11.7469 63.5558 11.9532C63.5625 12.2195 63.4914 12.4818 63.3512 12.7082C63.2188 12.9187 63.0297 13.0876 62.8056 13.1953C63.1147 13.2669 63.3909 13.4402 63.5899 13.6873ZM59.8685 11.1544V12.942H61.5051C61.8358 12.9611 62.1647 12.8814 62.4501 12.7131C62.557 12.6391 62.6432 12.5389 62.7003 12.4221C62.7575 12.3052 62.7837 12.1757 62.7764 12.0458C62.7838 11.9166 62.7576 11.7877 62.7004 11.6716C62.6432 11.5556 62.557 11.4562 62.4501 11.3834C62.1647 11.215 61.8358 11.1354 61.5051 11.1544H59.8685ZM62.7228 15.2168C62.8366 15.1416 62.9282 15.0374 62.9882 14.9149C63.0481 14.7925 63.0742 14.6562 63.0638 14.5202C63.0638 13.8967 62.6108 13.585 61.7048 13.585H59.8685V15.4408H61.7048C62.0586 15.4644 62.4117 15.3867 62.7228 15.2168ZM68.7141 14.1598V16.1081H67.925V14.1257L65.7087 10.492H66.5611L68.3488 13.4145L70.1413 10.492H70.9303L68.7141 14.1598Z" fill="#808285"/>
<path d="M86.7657 26.4686C94.0748 26.4686 100 20.5434 100 13.2343C100 5.92519 94.0748 0 86.7657 0C79.4566 0 73.5314 5.92519 73.5314 13.2343C73.5314 20.5434 79.4566 26.4686 86.7657 26.4686Z" fill="#F3741F"/>
<path d="M76.907 9.1427H78.3682V18.6118H76.907V9.1427ZM94.3692 9.1427V10.5017H91.9338V18.6118H90.4725V10.5017H88.0711V9.1427H94.3692ZM95.1632 9.1427H96.6245V18.6118H95.1632V9.1427ZM79.547 9.15731V18.6118H81.018V11.9386L86.6098 18.6118H88.0565L88.0711 9.1427H86.6098V16.0545L81.018 9.15731H79.547Z" fill="white"/>
</svg>
